<mxfile host="app.diagrams.net" modified="2022-05-27T14:26:40.425Z" agent="5.0 (Macintosh; Intel Mac OS X 10_15_7) AppleWebKit/537.36 (KHTML, like Gecko) Chrome/101.0.4951.64 Safari/537.36" etag="k_KxQZNQ-tB3jkmOFm_A" version="18.1.3" type="github">
  <diagram name="Page-1" id="64c3da0e-402f-94eb-ee01-a36477274f13">
    <mxGraphModel dx="2194" dy="1183" grid="1" gridSize="10" guides="1" tooltips="1" connect="1" arrows="1" fold="1" page="1" pageScale="1" pageWidth="1169" pageHeight="826" background="none" math="0" shadow="0">
      <root>
        <mxCell id="0" />
        <mxCell id="1" parent="0" />
        <mxCell id="BCSFHYgn0XdaEpkbSl3d-247" value="&lt;font style=&quot;font-size: 20px;&quot;&gt;&lt;b&gt;&amp;nbsp;PMC&lt;/b&gt;&lt;/font&gt;" style="outlineConnect=0;gradientColor=none;html=1;whiteSpace=wrap;fontSize=12;fontStyle=0;strokeColor=#FF9900;fillColor=none;verticalAlign=top;align=left;fontColor=#FF9900;dashed=1;spacingTop=3;strokeWidth=5;" parent="1" vertex="1">
          <mxGeometry x="730" y="150" width="1290" height="90" as="geometry" />
        </mxCell>
        <mxCell id="2" value="Tech Team" style="whiteSpace=wrap;rounded=1;shadow=1;fillColor=#10739E;strokeColor=none;fontColor=#FFFFFF;fontStyle=1;fontSize=24" parent="1" vertex="1">
          <mxGeometry x="1260" y="40" width="340" height="60" as="geometry" />
        </mxCell>
        <mxCell id="5" value="SIG PIC" style="whiteSpace=wrap;rounded=1;fillColor=#F2931E;strokeColor=none;shadow=1;fontColor=#FFFFFF;fontStyle=1;fontSize=14" parent="1" vertex="1">
          <mxGeometry x="1840" y="169.9999999999998" width="140" height="60" as="geometry" />
        </mxCell>
        <mxCell id="6" value="Project1 PIC" style="whiteSpace=wrap;rounded=1;fillColor=#F2931E;strokeColor=none;shadow=1;fontColor=#FFFFFF;fontStyle=1;fontSize=14" parent="1" vertex="1">
          <mxGeometry x="850" y="169.9999999999998" width="140" height="60" as="geometry" />
        </mxCell>
        <mxCell id="7" value="Project2 PIC" style="whiteSpace=wrap;rounded=1;fillColor=#F2931E;strokeColor=none;shadow=1;fontColor=#FFFFFF;fontStyle=1;fontSize=14" parent="1" vertex="1">
          <mxGeometry x="1360" y="169.9999999999998" width="140" height="60" as="geometry" />
        </mxCell>
        <mxCell id="221" value="" style="edgeStyle=elbowEdgeStyle;elbow=vertical;rounded=0;fontColor=#000000;endArrow=none;endFill=0;strokeWidth=8;strokeColor=#23445D;" parent="1" source="6" target="133" edge="1">
          <mxGeometry width="100" height="100" relative="1" as="geometry">
            <mxPoint x="730" y="270" as="sourcePoint" />
            <mxPoint x="830" y="170" as="targetPoint" />
          </mxGeometry>
        </mxCell>
        <mxCell id="222" value="" style="edgeStyle=elbowEdgeStyle;elbow=vertical;rounded=0;fontColor=#000000;endArrow=none;endFill=0;strokeWidth=8;strokeColor=#23445D;" parent="1" source="6" edge="1">
          <mxGeometry width="100" height="100" relative="1" as="geometry">
            <mxPoint x="980" y="280" as="sourcePoint" />
            <mxPoint x="1020" y="300" as="targetPoint" />
          </mxGeometry>
        </mxCell>
        <mxCell id="223" value="" style="edgeStyle=elbowEdgeStyle;elbow=vertical;rounded=0;fontColor=#000000;endArrow=none;endFill=0;strokeWidth=8;strokeColor=#23445D;" parent="1" source="7" edge="1">
          <mxGeometry width="100" height="100" relative="1" as="geometry">
            <mxPoint x="1430" y="300" as="sourcePoint" />
            <mxPoint x="1330" y="300.0000000000002" as="targetPoint" />
          </mxGeometry>
        </mxCell>
        <mxCell id="224" value="" style="edgeStyle=elbowEdgeStyle;elbow=vertical;rounded=0;fontColor=#000000;endArrow=none;endFill=0;strokeWidth=8;strokeColor=#23445D;" parent="1" source="7" edge="1">
          <mxGeometry width="100" height="100" relative="1" as="geometry">
            <mxPoint x="1520" y="290" as="sourcePoint" />
            <mxPoint x="1530" y="300.0000000000002" as="targetPoint" />
          </mxGeometry>
        </mxCell>
        <mxCell id="227" value="" style="edgeStyle=elbowEdgeStyle;elbow=vertical;rounded=0;fontColor=#000000;endArrow=none;endFill=0;strokeWidth=8;strokeColor=#23445D;" parent="1" source="5" edge="1">
          <mxGeometry width="100" height="100" relative="1" as="geometry">
            <mxPoint x="1730" y="290" as="sourcePoint" />
            <mxPoint x="1810" y="299.9999999999998" as="targetPoint" />
          </mxGeometry>
        </mxCell>
        <mxCell id="228" value="" style="edgeStyle=elbowEdgeStyle;elbow=vertical;rounded=0;fontColor=#000000;endArrow=none;endFill=0;strokeWidth=8;strokeColor=#23445D;" parent="1" source="5" edge="1">
          <mxGeometry width="100" height="100" relative="1" as="geometry">
            <mxPoint x="1990" y="290" as="sourcePoint" />
            <mxPoint x="2010" y="299.9999999999998" as="targetPoint" />
          </mxGeometry>
        </mxCell>
        <mxCell id="231" value="" style="edgeStyle=elbowEdgeStyle;elbow=vertical;rounded=0;fontColor=#000000;endArrow=none;endFill=0;strokeWidth=8;strokeColor=#23445D;" parent="1" source="2" target="6" edge="1">
          <mxGeometry width="100" height="100" relative="1" as="geometry">
            <mxPoint x="560" y="160" as="sourcePoint" />
            <mxPoint x="660" y="60" as="targetPoint" />
          </mxGeometry>
        </mxCell>
        <mxCell id="232" value="" style="edgeStyle=elbowEdgeStyle;elbow=vertical;rounded=0;fontColor=#000000;endArrow=none;endFill=0;strokeWidth=8;strokeColor=#23445D;" parent="1" source="2" target="7" edge="1">
          <mxGeometry width="100" height="100" relative="1" as="geometry">
            <mxPoint x="570" y="170" as="sourcePoint" />
            <mxPoint x="670" y="70" as="targetPoint" />
          </mxGeometry>
        </mxCell>
        <mxCell id="234" value="" style="edgeStyle=elbowEdgeStyle;elbow=vertical;rounded=0;fontColor=#000000;endArrow=none;endFill=0;strokeWidth=8;strokeColor=#23445D;" parent="1" source="2" target="5" edge="1">
          <mxGeometry width="100" height="100" relative="1" as="geometry">
            <mxPoint x="590" y="190" as="sourcePoint" />
            <mxPoint x="690" y="90" as="targetPoint" />
          </mxGeometry>
        </mxCell>
        <mxCell id="BCSFHYgn0XdaEpkbSl3d-280" value="" style="group" parent="1" vertex="1" connectable="0">
          <mxGeometry x="740" y="300.0000000000001" width="340" height="480" as="geometry" />
        </mxCell>
        <mxCell id="133" value="Tech Lead" style="whiteSpace=wrap;rounded=1;fillColor=#12AAB5;strokeColor=none;shadow=1;fontColor=#FFFFFF;" parent="BCSFHYgn0XdaEpkbSl3d-280" vertex="1">
          <mxGeometry x="19.999999999999773" width="120" height="60" as="geometry" />
        </mxCell>
        <mxCell id="135" value="Backend Dev" style="whiteSpace=wrap;rounded=1;fillColor=#FF6666;strokeColor=none;shadow=1;fontColor=#FFFFFF;fontStyle=0" parent="BCSFHYgn0XdaEpkbSl3d-280" vertex="1">
          <mxGeometry x="19.999999999999773" y="100" width="120" height="60" as="geometry" />
        </mxCell>
        <mxCell id="136" value="FE Dev" style="whiteSpace=wrap;rounded=1;fillColor=#FF9933;strokeColor=none;shadow=1;fontColor=#FFFFFF;fontStyle=0" parent="BCSFHYgn0XdaEpkbSl3d-280" vertex="1">
          <mxGeometry x="19.999999999999886" y="180" width="120" height="60" as="geometry" />
        </mxCell>
        <mxCell id="137" value="SRE / DBA" style="whiteSpace=wrap;rounded=1;fillColor=#33FF33;strokeColor=none;shadow=1;fontColor=#FFFFFF;fontStyle=0" parent="BCSFHYgn0XdaEpkbSl3d-280" vertex="1">
          <mxGeometry x="19.999999999999773" y="260" width="120" height="60" as="geometry" />
        </mxCell>
        <mxCell id="138" value="PM" style="whiteSpace=wrap;rounded=1;fillColor=#007FFF;strokeColor=none;shadow=1;fontColor=#FFFFFF;fontStyle=0" parent="BCSFHYgn0XdaEpkbSl3d-280" vertex="1">
          <mxGeometry x="20" y="340" width="120" height="60" as="geometry" />
        </mxCell>
        <mxCell id="139" value="Desgin" style="whiteSpace=wrap;rounded=1;fillColor=#FF00FF;strokeColor=none;shadow=1;fontColor=#FFFFFF;fontStyle=0" parent="BCSFHYgn0XdaEpkbSl3d-280" vertex="1">
          <mxGeometry x="20.000000000000114" y="420" width="120" height="60" as="geometry" />
        </mxCell>
        <mxCell id="145" value="" style="edgeStyle=elbowEdgeStyle;elbow=horizontal;rounded=0;fontColor=#000000;endArrow=none;endFill=0;strokeWidth=8;strokeColor=#23445D;" parent="BCSFHYgn0XdaEpkbSl3d-280" source="133" target="135" edge="1">
          <mxGeometry width="100" height="100" relative="1" as="geometry">
            <mxPoint y="30.00000000000034" as="sourcePoint" />
            <mxPoint x="9.999999999999545" y="129.9999999999999" as="targetPoint" />
            <Array as="points">
              <mxPoint y="79.99999999999989" />
            </Array>
          </mxGeometry>
        </mxCell>
        <mxCell id="146" value="" style="edgeStyle=elbowEdgeStyle;elbow=horizontal;rounded=0;fontColor=#000000;endArrow=none;endFill=0;strokeWidth=8;strokeColor=#23445D;" parent="BCSFHYgn0XdaEpkbSl3d-280" source="133" target="136" edge="1">
          <mxGeometry width="100" height="100" relative="1" as="geometry">
            <mxPoint x="10" y="29.999999999999886" as="sourcePoint" />
            <mxPoint x="9.999999999999773" y="209.9999999999999" as="targetPoint" />
            <Array as="points">
              <mxPoint y="119.99999999999989" />
            </Array>
          </mxGeometry>
        </mxCell>
        <mxCell id="147" value="" style="edgeStyle=elbowEdgeStyle;elbow=horizontal;rounded=0;fontColor=#000000;endArrow=none;endFill=0;strokeWidth=8;strokeColor=#23445D;" parent="BCSFHYgn0XdaEpkbSl3d-280" source="133" target="139" edge="1">
          <mxGeometry width="100" height="100" relative="1" as="geometry">
            <mxPoint x="10" y="29.999999999999886" as="sourcePoint" />
            <mxPoint x="10" y="449.9999999999999" as="targetPoint" />
            <Array as="points">
              <mxPoint y="249.9999999999999" />
            </Array>
          </mxGeometry>
        </mxCell>
        <mxCell id="148" value="" style="edgeStyle=elbowEdgeStyle;elbow=horizontal;rounded=0;fontColor=#000000;endArrow=none;endFill=0;strokeWidth=8;strokeColor=#23445D;" parent="BCSFHYgn0XdaEpkbSl3d-280" source="133" target="138" edge="1">
          <mxGeometry width="100" height="100" relative="1" as="geometry">
            <mxPoint x="10" y="29.999999999999886" as="sourcePoint" />
            <mxPoint x="10" y="369.9999999999999" as="targetPoint" />
            <Array as="points">
              <mxPoint y="199.9999999999999" />
            </Array>
          </mxGeometry>
        </mxCell>
        <mxCell id="149" value="" style="edgeStyle=elbowEdgeStyle;elbow=horizontal;rounded=0;fontColor=#000000;endArrow=none;endFill=0;strokeWidth=8;strokeColor=#23445D;" parent="BCSFHYgn0XdaEpkbSl3d-280" source="133" target="137" edge="1">
          <mxGeometry width="100" height="100" relative="1" as="geometry">
            <mxPoint x="10" y="29.999999999999886" as="sourcePoint" />
            <mxPoint x="9.999999999999773" y="289.9999999999999" as="targetPoint" />
            <Array as="points">
              <mxPoint y="169.9999999999999" />
            </Array>
          </mxGeometry>
        </mxCell>
        <mxCell id="BCSFHYgn0XdaEpkbSl3d-249" value="Ops Lead" style="whiteSpace=wrap;rounded=1;fillColor=#12AAB5;strokeColor=none;shadow=1;fontColor=#FFFFFF;" parent="BCSFHYgn0XdaEpkbSl3d-280" vertex="1">
          <mxGeometry x="219.99999999999977" width="120" height="60" as="geometry" />
        </mxCell>
        <mxCell id="BCSFHYgn0XdaEpkbSl3d-250" value="Operation" style="whiteSpace=wrap;rounded=1;fillColor=#FF6666;strokeColor=none;shadow=1;fontColor=#FFFFFF;fontStyle=0" parent="BCSFHYgn0XdaEpkbSl3d-280" vertex="1">
          <mxGeometry x="219.99999999999977" y="100" width="120" height="60" as="geometry" />
        </mxCell>
        <mxCell id="BCSFHYgn0XdaEpkbSl3d-251" value="media" style="whiteSpace=wrap;rounded=1;fillColor=#FF9933;strokeColor=none;shadow=1;fontColor=#FFFFFF;fontStyle=0" parent="BCSFHYgn0XdaEpkbSl3d-280" vertex="1">
          <mxGeometry x="219.9999999999999" y="180" width="120" height="60" as="geometry" />
        </mxCell>
        <mxCell id="BCSFHYgn0XdaEpkbSl3d-252" value="Growth and Brand" style="whiteSpace=wrap;rounded=1;fillColor=#33FF33;strokeColor=none;shadow=1;fontColor=#FFFFFF;fontStyle=0" parent="BCSFHYgn0XdaEpkbSl3d-280" vertex="1">
          <mxGeometry x="220" y="259.9999999999999" width="120" height="60" as="geometry" />
        </mxCell>
        <mxCell id="BCSFHYgn0XdaEpkbSl3d-253" value="Organization" style="whiteSpace=wrap;rounded=1;fillColor=#007FFF;strokeColor=none;shadow=1;fontColor=#FFFFFF;fontStyle=0" parent="BCSFHYgn0XdaEpkbSl3d-280" vertex="1">
          <mxGeometry x="220" y="340" width="120" height="60" as="geometry" />
        </mxCell>
        <mxCell id="BCSFHYgn0XdaEpkbSl3d-254" value="People" style="whiteSpace=wrap;rounded=1;fillColor=#FF00FF;strokeColor=none;shadow=1;fontColor=#FFFFFF;fontStyle=0" parent="BCSFHYgn0XdaEpkbSl3d-280" vertex="1">
          <mxGeometry x="220.0000000000001" y="420" width="120" height="60" as="geometry" />
        </mxCell>
        <mxCell id="BCSFHYgn0XdaEpkbSl3d-255" value="" style="edgeStyle=elbowEdgeStyle;elbow=horizontal;rounded=0;fontColor=#000000;endArrow=none;endFill=0;strokeWidth=8;strokeColor=#23445D;" parent="BCSFHYgn0XdaEpkbSl3d-280" source="BCSFHYgn0XdaEpkbSl3d-249" target="BCSFHYgn0XdaEpkbSl3d-250" edge="1">
          <mxGeometry width="100" height="100" relative="1" as="geometry">
            <mxPoint x="200" y="30.00000000000034" as="sourcePoint" />
            <mxPoint x="209.99999999999955" y="129.9999999999999" as="targetPoint" />
            <Array as="points">
              <mxPoint x="200" y="79.99999999999989" />
            </Array>
          </mxGeometry>
        </mxCell>
        <mxCell id="BCSFHYgn0XdaEpkbSl3d-256" value="" style="edgeStyle=elbowEdgeStyle;elbow=horizontal;rounded=0;fontColor=#000000;endArrow=none;endFill=0;strokeWidth=8;strokeColor=#23445D;" parent="BCSFHYgn0XdaEpkbSl3d-280" source="BCSFHYgn0XdaEpkbSl3d-249" target="BCSFHYgn0XdaEpkbSl3d-251" edge="1">
          <mxGeometry width="100" height="100" relative="1" as="geometry">
            <mxPoint x="210" y="29.999999999999886" as="sourcePoint" />
            <mxPoint x="209.99999999999977" y="209.9999999999999" as="targetPoint" />
            <Array as="points">
              <mxPoint x="200" y="119.99999999999989" />
            </Array>
          </mxGeometry>
        </mxCell>
        <mxCell id="BCSFHYgn0XdaEpkbSl3d-257" value="" style="edgeStyle=elbowEdgeStyle;elbow=horizontal;rounded=0;fontColor=#000000;endArrow=none;endFill=0;strokeWidth=8;strokeColor=#23445D;" parent="BCSFHYgn0XdaEpkbSl3d-280" source="BCSFHYgn0XdaEpkbSl3d-249" target="BCSFHYgn0XdaEpkbSl3d-254" edge="1">
          <mxGeometry width="100" height="100" relative="1" as="geometry">
            <mxPoint x="210" y="29.999999999999886" as="sourcePoint" />
            <mxPoint x="210" y="449.9999999999999" as="targetPoint" />
            <Array as="points">
              <mxPoint x="200" y="249.9999999999999" />
            </Array>
          </mxGeometry>
        </mxCell>
        <mxCell id="BCSFHYgn0XdaEpkbSl3d-258" value="" style="edgeStyle=elbowEdgeStyle;elbow=horizontal;rounded=0;fontColor=#000000;endArrow=none;endFill=0;strokeWidth=8;strokeColor=#23445D;" parent="BCSFHYgn0XdaEpkbSl3d-280" source="BCSFHYgn0XdaEpkbSl3d-249" target="BCSFHYgn0XdaEpkbSl3d-253" edge="1">
          <mxGeometry width="100" height="100" relative="1" as="geometry">
            <mxPoint x="210" y="29.999999999999886" as="sourcePoint" />
            <mxPoint x="210" y="369.9999999999999" as="targetPoint" />
            <Array as="points">
              <mxPoint x="200" y="199.9999999999999" />
            </Array>
          </mxGeometry>
        </mxCell>
        <mxCell id="BCSFHYgn0XdaEpkbSl3d-259" value="" style="edgeStyle=elbowEdgeStyle;elbow=horizontal;rounded=0;fontColor=#000000;endArrow=none;endFill=0;strokeWidth=8;strokeColor=#23445D;" parent="BCSFHYgn0XdaEpkbSl3d-280" source="BCSFHYgn0XdaEpkbSl3d-249" target="BCSFHYgn0XdaEpkbSl3d-252" edge="1">
          <mxGeometry width="100" height="100" relative="1" as="geometry">
            <mxPoint x="210" y="29.999999999999886" as="sourcePoint" />
            <mxPoint x="209.99999999999977" y="289.9999999999999" as="targetPoint" />
            <Array as="points">
              <mxPoint x="200" y="169.9999999999999" />
            </Array>
          </mxGeometry>
        </mxCell>
        <mxCell id="BCSFHYgn0XdaEpkbSl3d-281" value="Tech Lead" style="whiteSpace=wrap;rounded=1;fillColor=#12AAB5;strokeColor=none;shadow=1;fontColor=#FFFFFF;" parent="1" vertex="1">
          <mxGeometry x="1270.9999999999998" y="300.0000000000001" width="120" height="60" as="geometry" />
        </mxCell>
        <mxCell id="BCSFHYgn0XdaEpkbSl3d-282" value="Backend Dev" style="whiteSpace=wrap;rounded=1;fillColor=#FF6666;strokeColor=none;shadow=1;fontColor=#FFFFFF;fontStyle=0" parent="1" vertex="1">
          <mxGeometry x="1270.9999999999998" y="400.0000000000001" width="120" height="60" as="geometry" />
        </mxCell>
        <mxCell id="BCSFHYgn0XdaEpkbSl3d-283" value="FE Dev" style="whiteSpace=wrap;rounded=1;fillColor=#FF9933;strokeColor=none;shadow=1;fontColor=#FFFFFF;fontStyle=0" parent="1" vertex="1">
          <mxGeometry x="1271" y="480.0000000000001" width="120" height="60" as="geometry" />
        </mxCell>
        <mxCell id="BCSFHYgn0XdaEpkbSl3d-284" value="SRE / DBA" style="whiteSpace=wrap;rounded=1;fillColor=#33FF33;strokeColor=none;shadow=1;fontColor=#FFFFFF;fontStyle=0" parent="1" vertex="1">
          <mxGeometry x="1270.9999999999998" y="560.0000000000001" width="120" height="60" as="geometry" />
        </mxCell>
        <mxCell id="BCSFHYgn0XdaEpkbSl3d-285" value="PM" style="whiteSpace=wrap;rounded=1;fillColor=#007FFF;strokeColor=none;shadow=1;fontColor=#FFFFFF;fontStyle=0" parent="1" vertex="1">
          <mxGeometry x="1271" y="640.0000000000001" width="120" height="60" as="geometry" />
        </mxCell>
        <mxCell id="BCSFHYgn0XdaEpkbSl3d-286" value="Desgin" style="whiteSpace=wrap;rounded=1;fillColor=#FF00FF;strokeColor=none;shadow=1;fontColor=#FFFFFF;fontStyle=0" parent="1" vertex="1">
          <mxGeometry x="1271" y="720.0000000000001" width="120" height="60" as="geometry" />
        </mxCell>
        <mxCell id="BCSFHYgn0XdaEpkbSl3d-287" value="" style="edgeStyle=elbowEdgeStyle;elbow=horizontal;rounded=0;fontColor=#000000;endArrow=none;endFill=0;strokeWidth=8;strokeColor=#23445D;" parent="1" source="BCSFHYgn0XdaEpkbSl3d-281" target="BCSFHYgn0XdaEpkbSl3d-282" edge="1">
          <mxGeometry width="100" height="100" relative="1" as="geometry">
            <mxPoint x="1251" y="330.00000000000045" as="sourcePoint" />
            <mxPoint x="1260.9999999999995" y="430" as="targetPoint" />
            <Array as="points">
              <mxPoint x="1251" y="380" />
            </Array>
          </mxGeometry>
        </mxCell>
        <mxCell id="BCSFHYgn0XdaEpkbSl3d-288" value="" style="edgeStyle=elbowEdgeStyle;elbow=horizontal;rounded=0;fontColor=#000000;endArrow=none;endFill=0;strokeWidth=8;strokeColor=#23445D;" parent="1" source="BCSFHYgn0XdaEpkbSl3d-281" target="BCSFHYgn0XdaEpkbSl3d-283" edge="1">
          <mxGeometry width="100" height="100" relative="1" as="geometry">
            <mxPoint x="1261" y="330" as="sourcePoint" />
            <mxPoint x="1260.9999999999998" y="510" as="targetPoint" />
            <Array as="points">
              <mxPoint x="1251" y="420" />
            </Array>
          </mxGeometry>
        </mxCell>
        <mxCell id="BCSFHYgn0XdaEpkbSl3d-289" value="" style="edgeStyle=elbowEdgeStyle;elbow=horizontal;rounded=0;fontColor=#000000;endArrow=none;endFill=0;strokeWidth=8;strokeColor=#23445D;" parent="1" source="BCSFHYgn0XdaEpkbSl3d-281" target="BCSFHYgn0XdaEpkbSl3d-286" edge="1">
          <mxGeometry width="100" height="100" relative="1" as="geometry">
            <mxPoint x="1261" y="330" as="sourcePoint" />
            <mxPoint x="1261" y="750" as="targetPoint" />
            <Array as="points">
              <mxPoint x="1251" y="550" />
            </Array>
          </mxGeometry>
        </mxCell>
        <mxCell id="BCSFHYgn0XdaEpkbSl3d-290" value="" style="edgeStyle=elbowEdgeStyle;elbow=horizontal;rounded=0;fontColor=#000000;endArrow=none;endFill=0;strokeWidth=8;strokeColor=#23445D;" parent="1" source="BCSFHYgn0XdaEpkbSl3d-281" target="BCSFHYgn0XdaEpkbSl3d-285" edge="1">
          <mxGeometry width="100" height="100" relative="1" as="geometry">
            <mxPoint x="1261" y="330" as="sourcePoint" />
            <mxPoint x="1261" y="670" as="targetPoint" />
            <Array as="points">
              <mxPoint x="1251" y="500" />
            </Array>
          </mxGeometry>
        </mxCell>
        <mxCell id="BCSFHYgn0XdaEpkbSl3d-291" value="" style="edgeStyle=elbowEdgeStyle;elbow=horizontal;rounded=0;fontColor=#000000;endArrow=none;endFill=0;strokeWidth=8;strokeColor=#23445D;" parent="1" source="BCSFHYgn0XdaEpkbSl3d-281" target="BCSFHYgn0XdaEpkbSl3d-284" edge="1">
          <mxGeometry width="100" height="100" relative="1" as="geometry">
            <mxPoint x="1261" y="330" as="sourcePoint" />
            <mxPoint x="1260.9999999999998" y="590" as="targetPoint" />
            <Array as="points">
              <mxPoint x="1251" y="470" />
            </Array>
          </mxGeometry>
        </mxCell>
        <mxCell id="BCSFHYgn0XdaEpkbSl3d-292" value="Ops Lead" style="whiteSpace=wrap;rounded=1;fillColor=#12AAB5;strokeColor=none;shadow=1;fontColor=#FFFFFF;" parent="1" vertex="1">
          <mxGeometry x="1470.9999999999998" y="300.0000000000001" width="120" height="60" as="geometry" />
        </mxCell>
        <mxCell id="BCSFHYgn0XdaEpkbSl3d-293" value="Operation" style="whiteSpace=wrap;rounded=1;fillColor=#FF6666;strokeColor=none;shadow=1;fontColor=#FFFFFF;fontStyle=0" parent="1" vertex="1">
          <mxGeometry x="1470.9999999999998" y="400.0000000000001" width="120" height="60" as="geometry" />
        </mxCell>
        <mxCell id="BCSFHYgn0XdaEpkbSl3d-294" value="media" style="whiteSpace=wrap;rounded=1;fillColor=#FF9933;strokeColor=none;shadow=1;fontColor=#FFFFFF;fontStyle=0" parent="1" vertex="1">
          <mxGeometry x="1471" y="480.0000000000001" width="120" height="60" as="geometry" />
        </mxCell>
        <mxCell id="BCSFHYgn0XdaEpkbSl3d-295" value="Growth and Brand" style="whiteSpace=wrap;rounded=1;fillColor=#33FF33;strokeColor=none;shadow=1;fontColor=#FFFFFF;fontStyle=0" parent="1" vertex="1">
          <mxGeometry x="1471" y="560" width="120" height="60" as="geometry" />
        </mxCell>
        <mxCell id="BCSFHYgn0XdaEpkbSl3d-296" value="Organization" style="whiteSpace=wrap;rounded=1;fillColor=#007FFF;strokeColor=none;shadow=1;fontColor=#FFFFFF;fontStyle=0" parent="1" vertex="1">
          <mxGeometry x="1471" y="640.0000000000001" width="120" height="60" as="geometry" />
        </mxCell>
        <mxCell id="BCSFHYgn0XdaEpkbSl3d-297" value="People" style="whiteSpace=wrap;rounded=1;fillColor=#FF00FF;strokeColor=none;shadow=1;fontColor=#FFFFFF;fontStyle=0" parent="1" vertex="1">
          <mxGeometry x="1471" y="720.0000000000001" width="120" height="60" as="geometry" />
        </mxCell>
        <mxCell id="BCSFHYgn0XdaEpkbSl3d-298" value="" style="edgeStyle=elbowEdgeStyle;elbow=horizontal;rounded=0;fontColor=#000000;endArrow=none;endFill=0;strokeWidth=8;strokeColor=#23445D;" parent="1" source="BCSFHYgn0XdaEpkbSl3d-292" target="BCSFHYgn0XdaEpkbSl3d-293" edge="1">
          <mxGeometry width="100" height="100" relative="1" as="geometry">
            <mxPoint x="1451" y="330.00000000000045" as="sourcePoint" />
            <mxPoint x="1460.9999999999995" y="430" as="targetPoint" />
            <Array as="points">
              <mxPoint x="1451" y="380" />
            </Array>
          </mxGeometry>
        </mxCell>
        <mxCell id="BCSFHYgn0XdaEpkbSl3d-299" value="" style="edgeStyle=elbowEdgeStyle;elbow=horizontal;rounded=0;fontColor=#000000;endArrow=none;endFill=0;strokeWidth=8;strokeColor=#23445D;" parent="1" source="BCSFHYgn0XdaEpkbSl3d-292" target="BCSFHYgn0XdaEpkbSl3d-294" edge="1">
          <mxGeometry width="100" height="100" relative="1" as="geometry">
            <mxPoint x="1461" y="330" as="sourcePoint" />
            <mxPoint x="1460.9999999999998" y="510" as="targetPoint" />
            <Array as="points">
              <mxPoint x="1451" y="420" />
            </Array>
          </mxGeometry>
        </mxCell>
        <mxCell id="BCSFHYgn0XdaEpkbSl3d-300" value="" style="edgeStyle=elbowEdgeStyle;elbow=horizontal;rounded=0;fontColor=#000000;endArrow=none;endFill=0;strokeWidth=8;strokeColor=#23445D;" parent="1" source="BCSFHYgn0XdaEpkbSl3d-292" target="BCSFHYgn0XdaEpkbSl3d-297" edge="1">
          <mxGeometry width="100" height="100" relative="1" as="geometry">
            <mxPoint x="1461" y="330" as="sourcePoint" />
            <mxPoint x="1461" y="750" as="targetPoint" />
            <Array as="points">
              <mxPoint x="1451" y="550" />
            </Array>
          </mxGeometry>
        </mxCell>
        <mxCell id="BCSFHYgn0XdaEpkbSl3d-301" value="" style="edgeStyle=elbowEdgeStyle;elbow=horizontal;rounded=0;fontColor=#000000;endArrow=none;endFill=0;strokeWidth=8;strokeColor=#23445D;" parent="1" source="BCSFHYgn0XdaEpkbSl3d-292" target="BCSFHYgn0XdaEpkbSl3d-296" edge="1">
          <mxGeometry width="100" height="100" relative="1" as="geometry">
            <mxPoint x="1461" y="330" as="sourcePoint" />
            <mxPoint x="1461" y="670" as="targetPoint" />
            <Array as="points">
              <mxPoint x="1451" y="500" />
            </Array>
          </mxGeometry>
        </mxCell>
        <mxCell id="BCSFHYgn0XdaEpkbSl3d-302" value="" style="edgeStyle=elbowEdgeStyle;elbow=horizontal;rounded=0;fontColor=#000000;endArrow=none;endFill=0;strokeWidth=8;strokeColor=#23445D;" parent="1" source="BCSFHYgn0XdaEpkbSl3d-292" target="BCSFHYgn0XdaEpkbSl3d-295" edge="1">
          <mxGeometry width="100" height="100" relative="1" as="geometry">
            <mxPoint x="1461" y="330" as="sourcePoint" />
            <mxPoint x="1460.9999999999998" y="590" as="targetPoint" />
            <Array as="points">
              <mxPoint x="1451" y="470" />
            </Array>
          </mxGeometry>
        </mxCell>
        <mxCell id="BCSFHYgn0XdaEpkbSl3d-303" value="Tech Lead" style="whiteSpace=wrap;rounded=1;fillColor=#12AAB5;strokeColor=none;shadow=1;fontColor=#FFFFFF;" parent="1" vertex="1">
          <mxGeometry x="1751.9999999999998" y="300.0000000000001" width="120" height="60" as="geometry" />
        </mxCell>
        <mxCell id="BCSFHYgn0XdaEpkbSl3d-304" value="Backend Dev" style="whiteSpace=wrap;rounded=1;fillColor=#FF6666;strokeColor=none;shadow=1;fontColor=#FFFFFF;fontStyle=0" parent="1" vertex="1">
          <mxGeometry x="1751.9999999999998" y="400.0000000000001" width="120" height="60" as="geometry" />
        </mxCell>
        <mxCell id="BCSFHYgn0XdaEpkbSl3d-305" value="FE Dev" style="whiteSpace=wrap;rounded=1;fillColor=#FF9933;strokeColor=none;shadow=1;fontColor=#FFFFFF;fontStyle=0" parent="1" vertex="1">
          <mxGeometry x="1752" y="480.0000000000001" width="120" height="60" as="geometry" />
        </mxCell>
        <mxCell id="BCSFHYgn0XdaEpkbSl3d-306" value="SRE / DBA" style="whiteSpace=wrap;rounded=1;fillColor=#33FF33;strokeColor=none;shadow=1;fontColor=#FFFFFF;fontStyle=0" parent="1" vertex="1">
          <mxGeometry x="1751.9999999999998" y="560.0000000000001" width="120" height="60" as="geometry" />
        </mxCell>
        <mxCell id="BCSFHYgn0XdaEpkbSl3d-307" value="PM" style="whiteSpace=wrap;rounded=1;fillColor=#007FFF;strokeColor=none;shadow=1;fontColor=#FFFFFF;fontStyle=0" parent="1" vertex="1">
          <mxGeometry x="1752" y="640.0000000000001" width="120" height="60" as="geometry" />
        </mxCell>
        <mxCell id="BCSFHYgn0XdaEpkbSl3d-308" value="Desgin" style="whiteSpace=wrap;rounded=1;fillColor=#FF00FF;strokeColor=none;shadow=1;fontColor=#FFFFFF;fontStyle=0" parent="1" vertex="1">
          <mxGeometry x="1752" y="720.0000000000001" width="120" height="60" as="geometry" />
        </mxCell>
        <mxCell id="BCSFHYgn0XdaEpkbSl3d-309" value="" style="edgeStyle=elbowEdgeStyle;elbow=horizontal;rounded=0;fontColor=#000000;endArrow=none;endFill=0;strokeWidth=8;strokeColor=#23445D;" parent="1" source="BCSFHYgn0XdaEpkbSl3d-303" target="BCSFHYgn0XdaEpkbSl3d-304" edge="1">
          <mxGeometry width="100" height="100" relative="1" as="geometry">
            <mxPoint x="1732" y="330.00000000000045" as="sourcePoint" />
            <mxPoint x="1741.9999999999995" y="430" as="targetPoint" />
            <Array as="points">
              <mxPoint x="1732" y="380" />
            </Array>
          </mxGeometry>
        </mxCell>
        <mxCell id="BCSFHYgn0XdaEpkbSl3d-310" value="" style="edgeStyle=elbowEdgeStyle;elbow=horizontal;rounded=0;fontColor=#000000;endArrow=none;endFill=0;strokeWidth=8;strokeColor=#23445D;" parent="1" source="BCSFHYgn0XdaEpkbSl3d-303" target="BCSFHYgn0XdaEpkbSl3d-305" edge="1">
          <mxGeometry width="100" height="100" relative="1" as="geometry">
            <mxPoint x="1742" y="330" as="sourcePoint" />
            <mxPoint x="1741.9999999999998" y="510" as="targetPoint" />
            <Array as="points">
              <mxPoint x="1732" y="420" />
            </Array>
          </mxGeometry>
        </mxCell>
        <mxCell id="BCSFHYgn0XdaEpkbSl3d-311" value="" style="edgeStyle=elbowEdgeStyle;elbow=horizontal;rounded=0;fontColor=#000000;endArrow=none;endFill=0;strokeWidth=8;strokeColor=#23445D;" parent="1" source="BCSFHYgn0XdaEpkbSl3d-303" target="BCSFHYgn0XdaEpkbSl3d-308" edge="1">
          <mxGeometry width="100" height="100" relative="1" as="geometry">
            <mxPoint x="1742" y="330" as="sourcePoint" />
            <mxPoint x="1742" y="750" as="targetPoint" />
            <Array as="points">
              <mxPoint x="1732" y="550" />
            </Array>
          </mxGeometry>
        </mxCell>
        <mxCell id="BCSFHYgn0XdaEpkbSl3d-312" value="" style="edgeStyle=elbowEdgeStyle;elbow=horizontal;rounded=0;fontColor=#000000;endArrow=none;endFill=0;strokeWidth=8;strokeColor=#23445D;" parent="1" source="BCSFHYgn0XdaEpkbSl3d-303" target="BCSFHYgn0XdaEpkbSl3d-307" edge="1">
          <mxGeometry width="100" height="100" relative="1" as="geometry">
            <mxPoint x="1742" y="330" as="sourcePoint" />
            <mxPoint x="1742" y="670" as="targetPoint" />
            <Array as="points">
              <mxPoint x="1732" y="500" />
            </Array>
          </mxGeometry>
        </mxCell>
        <mxCell id="BCSFHYgn0XdaEpkbSl3d-313" value="" style="edgeStyle=elbowEdgeStyle;elbow=horizontal;rounded=0;fontColor=#000000;endArrow=none;endFill=0;strokeWidth=8;strokeColor=#23445D;" parent="1" source="BCSFHYgn0XdaEpkbSl3d-303" target="BCSFHYgn0XdaEpkbSl3d-306" edge="1">
          <mxGeometry width="100" height="100" relative="1" as="geometry">
            <mxPoint x="1742" y="330" as="sourcePoint" />
            <mxPoint x="1741.9999999999998" y="590" as="targetPoint" />
            <Array as="points">
              <mxPoint x="1732" y="470" />
            </Array>
          </mxGeometry>
        </mxCell>
        <mxCell id="BCSFHYgn0XdaEpkbSl3d-314" value="Ops Lead" style="whiteSpace=wrap;rounded=1;fillColor=#12AAB5;strokeColor=none;shadow=1;fontColor=#FFFFFF;" parent="1" vertex="1">
          <mxGeometry x="1951.9999999999998" y="300.0000000000001" width="120" height="60" as="geometry" />
        </mxCell>
        <mxCell id="BCSFHYgn0XdaEpkbSl3d-315" value="Operation" style="whiteSpace=wrap;rounded=1;fillColor=#FF6666;strokeColor=none;shadow=1;fontColor=#FFFFFF;fontStyle=0" parent="1" vertex="1">
          <mxGeometry x="1951.9999999999998" y="400.0000000000001" width="120" height="60" as="geometry" />
        </mxCell>
        <mxCell id="BCSFHYgn0XdaEpkbSl3d-316" value="media" style="whiteSpace=wrap;rounded=1;fillColor=#FF9933;strokeColor=none;shadow=1;fontColor=#FFFFFF;fontStyle=0" parent="1" vertex="1">
          <mxGeometry x="1952" y="480.0000000000001" width="120" height="60" as="geometry" />
        </mxCell>
        <mxCell id="BCSFHYgn0XdaEpkbSl3d-317" value="Growth and Brand" style="whiteSpace=wrap;rounded=1;fillColor=#33FF33;strokeColor=none;shadow=1;fontColor=#FFFFFF;fontStyle=0" parent="1" vertex="1">
          <mxGeometry x="1952" y="560" width="120" height="60" as="geometry" />
        </mxCell>
        <mxCell id="BCSFHYgn0XdaEpkbSl3d-318" value="Organization" style="whiteSpace=wrap;rounded=1;fillColor=#007FFF;strokeColor=none;shadow=1;fontColor=#FFFFFF;fontStyle=0" parent="1" vertex="1">
          <mxGeometry x="1952" y="640.0000000000001" width="120" height="60" as="geometry" />
        </mxCell>
        <mxCell id="BCSFHYgn0XdaEpkbSl3d-319" value="People" style="whiteSpace=wrap;rounded=1;fillColor=#FF00FF;strokeColor=none;shadow=1;fontColor=#FFFFFF;fontStyle=0" parent="1" vertex="1">
          <mxGeometry x="1952" y="720.0000000000001" width="120" height="60" as="geometry" />
        </mxCell>
        <mxCell id="BCSFHYgn0XdaEpkbSl3d-320" value="" style="edgeStyle=elbowEdgeStyle;elbow=horizontal;rounded=0;fontColor=#000000;endArrow=none;endFill=0;strokeWidth=8;strokeColor=#23445D;" parent="1" source="BCSFHYgn0XdaEpkbSl3d-314" target="BCSFHYgn0XdaEpkbSl3d-315" edge="1">
          <mxGeometry width="100" height="100" relative="1" as="geometry">
            <mxPoint x="1932" y="330.00000000000045" as="sourcePoint" />
            <mxPoint x="1941.9999999999995" y="430" as="targetPoint" />
            <Array as="points">
              <mxPoint x="1932" y="380" />
            </Array>
          </mxGeometry>
        </mxCell>
        <mxCell id="BCSFHYgn0XdaEpkbSl3d-321" value="" style="edgeStyle=elbowEdgeStyle;elbow=horizontal;rounded=0;fontColor=#000000;endArrow=none;endFill=0;strokeWidth=8;strokeColor=#23445D;" parent="1" source="BCSFHYgn0XdaEpkbSl3d-314" target="BCSFHYgn0XdaEpkbSl3d-316" edge="1">
          <mxGeometry width="100" height="100" relative="1" as="geometry">
            <mxPoint x="1942" y="330" as="sourcePoint" />
            <mxPoint x="1941.9999999999998" y="510" as="targetPoint" />
            <Array as="points">
              <mxPoint x="1932" y="420" />
            </Array>
          </mxGeometry>
        </mxCell>
        <mxCell id="BCSFHYgn0XdaEpkbSl3d-322" value="" style="edgeStyle=elbowEdgeStyle;elbow=horizontal;rounded=0;fontColor=#000000;endArrow=none;endFill=0;strokeWidth=8;strokeColor=#23445D;" parent="1" source="BCSFHYgn0XdaEpkbSl3d-314" target="BCSFHYgn0XdaEpkbSl3d-319" edge="1">
          <mxGeometry width="100" height="100" relative="1" as="geometry">
            <mxPoint x="1942" y="330" as="sourcePoint" />
            <mxPoint x="1942" y="750" as="targetPoint" />
            <Array as="points">
              <mxPoint x="1932" y="550" />
            </Array>
          </mxGeometry>
        </mxCell>
        <mxCell id="BCSFHYgn0XdaEpkbSl3d-323" value="" style="edgeStyle=elbowEdgeStyle;elbow=horizontal;rounded=0;fontColor=#000000;endArrow=none;endFill=0;strokeWidth=8;strokeColor=#23445D;" parent="1" source="BCSFHYgn0XdaEpkbSl3d-314" target="BCSFHYgn0XdaEpkbSl3d-318" edge="1">
          <mxGeometry width="100" height="100" relative="1" as="geometry">
            <mxPoint x="1942" y="330" as="sourcePoint" />
            <mxPoint x="1942" y="670" as="targetPoint" />
            <Array as="points">
              <mxPoint x="1932" y="500" />
            </Array>
          </mxGeometry>
        </mxCell>
        <mxCell id="BCSFHYgn0XdaEpkbSl3d-324" value="" style="edgeStyle=elbowEdgeStyle;elbow=horizontal;rounded=0;fontColor=#000000;endArrow=none;endFill=0;strokeWidth=8;strokeColor=#23445D;" parent="1" source="BCSFHYgn0XdaEpkbSl3d-314" target="BCSFHYgn0XdaEpkbSl3d-317" edge="1">
          <mxGeometry width="100" height="100" relative="1" as="geometry">
            <mxPoint x="1942" y="330" as="sourcePoint" />
            <mxPoint x="1941.9999999999998" y="590" as="targetPoint" />
            <Array as="points">
              <mxPoint x="1932" y="470" />
            </Array>
          </mxGeometry>
        </mxCell>
      </root>
    </mxGraphModel>
  </diagram>
</mxfile>
